<svg xmlns="http://www.w3.org/2000/svg" width="100" height="100"><path fill="#A8AFAC" stroke="#A8AFAC" stroke-linejoin="round" stroke-miterlimit="10" d="M44.114 35.955H59.66v38.688H44.114z"/><g fill="#AFDDCE"><path d="M49.973 57.982a.494.494 0 0 1-.252-.068l-18.76-10.925a.503.503 0 0 1-.249-.434l.111-34.912a.496.496 0 0 1 .5-.498c.104 0 .208.032.294.096l18.649 13.594a.5.5 0 0 1 .205.404v32.244a.501.501 0 0 1-.498.499z"/><path d="M31.324 11.645l18.649 13.594v32.244l-18.76-10.926.111-34.912m0-1a1 1 0 0 0-1 .997l-.111 34.912c-.001.357.188.688.497.868l18.76 10.925a.993.993 0 0 0 1.001.003 1 1 0 0 0 .502-.867V25.239a.998.998 0 0 0-.411-.808L31.913 10.836a1 1 0 0 0-.589-.191z"/></g><g fill="#AFDDCE"><path d="M51.963 57.982a.502.502 0 0 1-.5-.5V25.239a.5.5 0 0 1 .205-.404L70.319 11.24a.507.507 0 0 1 .521-.042.498.498 0 0 1 .274.444l.106 34.912a.5.5 0 0 1-.248.434L52.215 57.914a.494.494 0 0 1-.252.068z"/><path d="M70.614 11.645l.106 34.912-18.757 10.925V25.239l18.651-13.594m0-1a.999.999 0 0 0-.589.192L51.374 24.431a.998.998 0 0 0-.411.808v32.244a1 1 0 0 0 1.503.864l18.758-10.926a1 1 0 0 0 .497-.867l-.106-34.912a1 1 0 0 0-1.001-.997z"/></g><g fill="#7CCBB4"><path d="M50.411 59.982a.494.494 0 0 1-.221-.052L27.981 49.007a.5.5 0 0 1-.279-.451l.133-34.914a.498.498 0 0 1 .762-.424l22.076 13.594a.5.5 0 0 1 .238.426v32.244a.502.502 0 0 1-.5.5z"/><path d="M28.335 13.645l22.076 13.594v32.244L28.202 48.559l.133-34.914m0-1a1 1 0 0 0-1 .996l-.133 34.914a1 1 0 0 0 .559.901L49.97 60.38a1 1 0 0 0 1.441-.897V27.239c0-.347-.18-.669-.476-.852L28.859 12.793a.995.995 0 0 0-.524-.148z"/></g><g fill="#7CCBB4"><path d="M52.179 59.982a.5.5 0 0 1-.5-.5V27.239a.5.5 0 0 1 .232-.422l21.408-13.594a.495.495 0 0 1 .508-.016.5.5 0 0 1 .26.437l.126 34.914a.5.5 0 0 1-.273.448L52.405 59.929a.5.5 0 0 1-.226.053z"/><path d="M73.587 13.645l.126 34.914-21.534 10.923V27.239l21.408-13.594m0-1a.995.995 0 0 0-.536.156L51.643 26.395a1 1 0 0 0-.464.844v32.244a1.003 1.003 0 0 0 1 1 1 1 0 0 0 .452-.108L74.165 49.45a1 1 0 0 0 .548-.895l-.126-34.914a1 1 0 0 0-1-.996z"/></g><g fill="#1BB792"><path d="M50.411 61.982a.516.516 0 0 1-.196-.04L24.593 51.018a.5.5 0 0 1-.304-.461l.153-34.913a.5.5 0 0 1 .735-.439l25.469 13.593a.5.5 0 0 1 .265.441v32.244a.499.499 0 0 1-.5.499z"/><path d="M24.942 15.646l25.469 13.593v32.244L24.79 50.558l.152-34.912m0-1a1.001 1.001 0 0 0-1 .995l-.152 34.913c-.002.402.238.767.608.925l25.621 10.924a.997.997 0 0 0 .945-.086c.279-.185.448-.498.448-.834V29.239a1 1 0 0 0-.529-.882l-25.47-13.594a1.005 1.005 0 0 0-.471-.117z"/></g><g fill="#1BB792"><path d="M52.179 61.982a.499.499 0 0 1-.5-.5V29.239a.5.5 0 0 1 .265-.441l25.499-13.593a.502.502 0 0 1 .492.012c.15.09.242.252.243.427l.152 34.913a.498.498 0 0 1-.304.461L52.375 61.942a.498.498 0 0 1-.196.04z"/><path d="M77.678 15.646l.152 34.913-25.651 10.923V29.239l25.499-13.593m0-1a1 1 0 0 0-.471.118L51.708 28.356a1.001 1.001 0 0 0-.529.882v32.244a1.001 1.001 0 0 0 1.392.92l25.651-10.924a1 1 0 0 0 .608-.925l-.152-34.913a1.002 1.002 0 0 0-.487-.854 1.013 1.013 0 0 0-.513-.14z"/></g><g fill="#088E66"><path d="M49.973 64.989a1.01 1.01 0 0 1-.329-.056L17.387 53.682a1.001 1.001 0 0 1-.67-.944v-31.29a1 1 0 0 1 1.278-.96l32.257 9.333a1 1 0 0 1 .722.96V63.99a.999.999 0 0 1-1.001.999z"/><path d="M17.716 21.448l32.256 9.333V63.99L17.716 52.737V21.448m0-2a2.002 2.002 0 0 0-2 2v31.29c0 .851.538 1.608 1.341 1.889l32.256 11.252a2.004 2.004 0 0 0 1.817-.258 2 2 0 0 0 .842-1.631V30.78a2 2 0 0 0-1.444-1.921l-32.256-9.333a2.034 2.034 0 0 0-.556-.078z"/></g><g fill="#088E66"><path d="M52.673 64.989a.998.998 0 0 1-1-1V30.78a1 1 0 0 1 .707-.956l30.473-9.333a.998.998 0 0 1 1.293.956v31.29a1 1 0 0 1-.653.938L53.02 64.928c-.113.041-.23.061-.347.061z"/><path d="M83.146 21.448v31.29L52.673 63.989V30.78l30.473-9.332m0-2c-.196 0-.394.029-.586.088l-30.473 9.333a2 2 0 0 0-1.414 1.912V63.99a2.002 2.002 0 0 0 2.692 1.876l30.473-11.252a2 2 0 0 0 1.308-1.876v-31.29a2 2 0 0 0-2-2z"/></g><path fill="#A8AFAC" stroke="#A8AFAC" stroke-linejoin="round" stroke-miterlimit="10" d="M65.922 87.5H37.245l6.817-11.605h15.752z"/></svg>